M48
METRIC,0000.00
T01C0.4
T02C0.9
%
T01
X+001651Y+001397
X+001778Y+001207
X+001524Y+001016
X+001397Y+000889
X+001207Y+001016
X+001111Y+000857
X+001111Y+000667
X+001207Y+000572
X+001714Y+000889
X+002159Y+000889
X+002413Y+000889
X+002540Y+000762
X+002667Y+000889
X+002413Y+001143
X+002413Y+000635
X+003175Y+001175
X+003302Y+001461
X+003048Y+001461
X+003747Y+000762
X+003874Y+000889
X+001143Y+001381
X+000699Y+001143
T02
X+003937Y+000127
X+003683Y+000127
X+003429Y+000127
X+003175Y+000127
X+002921Y+000127
X+002667Y+000127
X+002413Y+000127
X+002159Y+000127
X+001905Y+000127
X+001651Y+000127
X+001397Y+000127
X+001143Y+000127
X+000127Y+000381
X+000127Y+000635
X+000127Y+000889
X+000127Y+001143
X+000127Y+001397
X+000127Y+001651
X+001143Y+001651
X+001397Y+001651
X+001651Y+001651
X+001905Y+001651
X+002159Y+001651
X+002413Y+001651
X+002667Y+001651
X+002921Y+001651
X+003175Y+001651
X+003429Y+001651
X+003683Y+001651
X+003937Y+001651
T00
M30
