G04 DipTrace 3.3.1.3*
G04 CR19-0914-MP2.GTL*
%MOMM*%
G04 #@! TF.FileFunction,Copper,L1,Top*
G04 #@! TF.Part,Single*
%AMOUTLINE0*
4,1,4,
-0.42426,-0.77782,
-0.77782,-0.42426,
0.42426,0.77782,
0.77782,0.42426,
-0.42426,-0.77782,
0*%
%AMOUTLINE3*
4,1,4,
-0.77782,0.42426,
-0.42426,0.77782,
0.77782,-0.42426,
0.42426,-0.77782,
-0.77782,0.42426,
0*%
%AMOUTLINE6*
4,1,4,
0.55,0.5,
0.55,-0.5,
-0.55,-0.5,
-0.55,0.5,
0.55,0.5,
0*%
%AMOUTLINE9*
4,1,4,
0.375,-0.9,
-0.375,-0.9,
-0.375,0.9,
0.375,0.9,
0.375,-0.9,
0*%
G04 #@! TA.AperFunction,Conductor*
%ADD10C,0.254*%
%ADD13C,0.3048*%
%ADD14C,0.6096*%
%ADD15C,0.4064*%
G04 #@! TA.AperFunction,ComponentPad*
%ADD21R,1.6X1.6*%
%ADD22C,1.6*%
%ADD24R,0.4X2.0*%
%ADD26R,1.1X1.0*%
%ADD27R,1.25X1.1*%
G04 #@! TA.AperFunction,ViaPad*
%ADD28C,0.8*%
%ADD46OUTLINE0*%
%ADD49OUTLINE3*%
%ADD52OUTLINE6*%
%ADD55OUTLINE9*%
%FSLAX35Y35*%
G04*
G71*
G90*
G75*
G01*
G04 Top*
%LPD*%
X2257437Y439594D2*
D10*
X2167093Y349250D1*
X2111377D1*
X1920877Y539750D1*
X1698623D1*
X1658000Y499127D1*
Y381000D1*
X2314005Y383025D2*
X2349500Y347530D1*
Y301627D1*
X2301873Y254000D1*
X2095500D1*
X1968500Y381000D1*
X1898000D1*
X3406750Y1254127D2*
D13*
X3302000Y1358877D1*
Y1460500D1*
X1905000Y127000D2*
X1778000Y254000D1*
Y381000D1*
X1397000Y889000D2*
Y984250D1*
X1312000Y1069250D1*
Y1143000D1*
X2413000Y635000D2*
X2226569D1*
X2144299Y552731D1*
X2413000Y1143000D2*
X2460627Y1095373D1*
X2573805D1*
X2681701Y1203269D1*
X3048000Y1460500D2*
X3103563D1*
X3133000Y1431063D1*
Y1333500D1*
X3873500Y889000D2*
Y825500D1*
X3855500Y807500D1*
Y571500D1*
X2738269Y1146701D2*
D10*
X2845695Y1254127D1*
X2883627D1*
X2963000Y1333500D1*
X804000Y1016000D2*
D15*
X730250D1*
X698500Y1047750D1*
Y1143000D1*
X804000Y1333500D2*
D14*
X793750D1*
X698500Y1238250D1*
Y1143000D1*
X1524000Y1016000D2*
X1482000Y1058000D1*
Y1143000D1*
X1778000Y1206500D2*
X1714500Y1143000D1*
X1482000D1*
X1312000Y1333500D2*
D15*
Y1482000D1*
X1143000Y1651000D1*
D14*
X889000D1*
X804000Y1566000D1*
Y1333500D1*
X2540000Y762000D2*
D13*
X2667000D1*
X2762250Y857250D1*
Y944407D1*
X2851406Y1033563D1*
X2540000Y762000D2*
X2349500D1*
X2317750Y730250D1*
X2208681D1*
X2087731Y609299D1*
Y1146701D2*
D10*
X2218431Y1016000D1*
X2540000D1*
X2667000Y889000D1*
X974000Y571500D2*
X1206500D1*
X974000Y1016000D2*
X1206500D1*
X2087731Y1146701D2*
X1964431Y1270000D1*
X1841500D1*
X1809750Y1301750D1*
X1746250D1*
X1682750Y1238250D1*
X1238250D1*
X1206500Y1206500D1*
Y1016000D1*
X3510500Y571500D2*
D13*
X3635373D1*
X3746500Y682627D1*
Y762000D1*
X2200868Y1259838D2*
D10*
X2063706Y1397000D1*
X2032000D1*
X1905000Y1524000D1*
Y1651000D1*
X1482000Y1333500D2*
X1587500D1*
X1651000Y1397000D1*
X2144299Y1203269D2*
X2014069Y1333500D1*
X1968500D1*
X1651000Y1651000D1*
X974000Y1333500D2*
X1095373D1*
X1143000Y1381127D1*
X804000Y571500D2*
X508000D1*
X317500Y381000D1*
X127000D1*
X2568563Y1316406D2*
X2665034Y1412877D1*
X2809877D1*
X2921000Y1524000D1*
Y1651000D1*
X2511995Y1372975D2*
X2667000Y1527980D1*
Y1651000D1*
X2314005Y1372975D2*
X2413000Y1471970D1*
Y1651000D1*
X2257437Y1316406D2*
X2159000Y1414843D1*
Y1651000D1*
X2031162Y1090132D2*
X1946544Y1174750D1*
X1857373D1*
X1730373Y1047750D1*
X1666873D1*
X1571627Y952503D1*
Y857250D1*
X1508127Y793750D1*
X1174750D1*
X1111250Y857250D1*
X127000Y889000D2*
X381000D1*
X476250Y793750D1*
X1047750D1*
X1111250Y857250D1*
X1974594Y1033563D2*
X1896907Y1111250D1*
X1873250D1*
X1746250Y984250D1*
X1682750D1*
X1619250Y920750D1*
Y825500D1*
X1524000Y730250D1*
X1174750D1*
X1111250Y666750D1*
X127000Y635000D2*
X381000D1*
X476250Y730250D1*
X1047750D1*
X1111250Y666750D1*
X1918025Y976995D2*
X1830030Y889000D1*
X1714500D1*
X1918025Y779005D2*
X2028020Y889000D1*
X2159000D1*
X2413000D2*
X2286000D1*
X2206627Y809627D1*
X2061784D1*
X1974594Y722437D1*
X2511995Y383025D2*
X2641020Y254000D1*
X2794000D1*
X2921000Y127000D1*
X2568563Y439594D2*
X2690657Y317500D1*
X2984500D1*
X3175000Y127000D1*
X2625132Y496162D2*
X2740294Y381000D1*
X3175000D1*
X3429000Y127000D1*
X2681701Y552731D2*
X2789931Y444500D1*
X3238500D1*
X3413127Y269873D1*
X3540127D1*
X3683000Y127000D1*
X2738269Y609299D2*
X2839569Y508000D1*
X3302000D1*
X3460750Y349250D1*
X3714750D1*
X3937000Y127000D1*
X2794838Y665868D2*
X2889206Y571500D1*
X3204527D1*
X3395027Y762000D1*
X3619500D1*
X3937000Y1079500D1*
Y1651000D1*
X2851406Y722437D2*
X2938843Y635000D1*
X3155790D1*
X3346290Y825500D1*
X3570763D1*
X3857627Y1112363D1*
Y1476373D1*
X3683000Y1651000D1*
X2907975Y779005D2*
X2988480Y698500D1*
X3107053D1*
X3297553Y889000D1*
X3522027D1*
X3778250Y1145223D1*
Y1417827D1*
X3703827Y1492250D1*
X3587750D1*
X3429000Y1651000D1*
X2907975Y976995D2*
X3105730Y1174750D1*
X3175000D1*
X3302000Y1047750D1*
X3312250D1*
X3482250D2*
X3571873D1*
X3641750Y1117627D1*
Y1254127D1*
D28*
X1651000Y1397000D3*
X1143000Y1381127D3*
X698500Y1143000D3*
X1714500Y889000D3*
X2159000D3*
X2413000D3*
X2667000D3*
X3746500Y762000D3*
X1206500Y571500D3*
Y1016000D3*
X3175000Y1174750D3*
X2540000Y762000D3*
X1524000Y1016000D3*
X2413000Y1143000D3*
X3873500Y889000D3*
X1111250Y666750D3*
X3302000Y1460500D3*
X3048000D3*
X1111250Y857250D3*
X1397000Y889000D3*
X1778000Y1206500D3*
X2413000Y635000D3*
D46*
X1918025Y779005D3*
X1974594Y722437D3*
X2031162Y665868D3*
X2087731Y609299D3*
X2144299Y552731D3*
X2200868Y496162D3*
X2257437Y439594D3*
X2314005Y383025D3*
D49*
X2511995D3*
X2568563Y439594D3*
X2625132Y496162D3*
X2681701Y552731D3*
X2738269Y609299D3*
X2794838Y665868D3*
X2851406Y722437D3*
X2907975Y779005D3*
D46*
Y976995D3*
X2851406Y1033563D3*
X2794838Y1090132D3*
X2738269Y1146701D3*
X2681701Y1203269D3*
X2625132Y1259838D3*
X2568563Y1316406D3*
X2511995Y1372975D3*
D49*
X2314005D3*
X2257437Y1316406D3*
X2200868Y1259838D3*
X2144299Y1203269D3*
X2087731Y1146701D3*
X2031162Y1090132D3*
X1974594Y1033563D3*
X1918025Y976995D3*
D21*
X3937000Y127000D3*
D22*
X3683000D3*
X3429000D3*
X3175000D3*
X2921000D3*
X2667000D3*
X2413000D3*
X2159000D3*
X1905000D3*
X1651000D3*
X1397000D3*
X1143000D3*
D21*
Y1651000D3*
D22*
X1397000D3*
X1651000D3*
X1905000D3*
X2159000D3*
X2413000D3*
X2667000D3*
X2921000D3*
X3175000D3*
X3429000D3*
X3683000D3*
X3937000D3*
D21*
X127000Y381000D3*
D22*
Y635000D3*
Y889000D3*
Y1143000D3*
Y1397000D3*
Y1651000D3*
D24*
X1658000Y381000D3*
X1778000D3*
X1898000D3*
D52*
X2963000Y1333500D3*
X3133000D3*
D26*
X804000Y1016000D3*
X974000D3*
D55*
X3510500Y571500D3*
X3855500D3*
D26*
X804000D3*
X974000D3*
X1312000Y1333500D3*
X1482000D3*
X804000D3*
X974000D3*
X3312250Y1047750D3*
X3482250D3*
D27*
X3641750Y1254127D3*
X3406750D3*
D26*
X1482000Y1143000D3*
X1312000D3*
M02*
