G04 DipTrace 3.3.1.3*
G04 CR19-0914-MP2.GTS*
%MOMM*%
G04 #@! TF.FileFunction,Soldermask,Top*
G04 #@! TF.Part,Single*
%AMOUTLINE1*
4,1,4,
-0.42426,-0.91924,
-0.91924,-0.42426,
0.42426,0.91924,
0.91924,0.42426,
-0.42426,-0.91924,
0*%
%AMOUTLINE4*
4,1,4,
-0.91924,0.42426,
-0.42426,0.91924,
0.91924,-0.42426,
0.42426,-0.91924,
-0.91924,0.42426,
0*%
%AMOUTLINE7*
4,1,4,
0.65,0.6,
0.65,-0.6,
-0.65,-0.6,
-0.65,0.6,
0.65,0.6,
0*%
%AMOUTLINE10*
4,1,4,
0.475,-1.0,
-0.475,-1.0,
-0.475,1.0,
0.475,1.0,
0.475,-1.0,
0*%
%ADD34R,1.45X1.3*%
%ADD36R,1.3X1.2*%
%ADD38R,0.6X2.2*%
%ADD40C,1.8*%
%ADD42R,1.8X1.8*%
%ADD47OUTLINE1*%
%ADD50OUTLINE4*%
%ADD53OUTLINE7*%
%ADD56OUTLINE10*%
%FSLAX35Y35*%
G04*
G71*
G90*
G75*
G01*
G04 TopMask*
%LPD*%
D47*
X1918025Y779005D3*
X1974594Y722437D3*
X2031162Y665868D3*
X2087731Y609299D3*
X2144299Y552731D3*
X2200868Y496162D3*
X2257437Y439594D3*
X2314005Y383025D3*
D50*
X2511995D3*
X2568563Y439594D3*
X2625132Y496162D3*
X2681701Y552731D3*
X2738269Y609299D3*
X2794838Y665868D3*
X2851406Y722437D3*
X2907975Y779005D3*
D47*
Y976995D3*
X2851406Y1033563D3*
X2794838Y1090132D3*
X2738269Y1146701D3*
X2681701Y1203269D3*
X2625132Y1259838D3*
X2568563Y1316406D3*
X2511995Y1372975D3*
D50*
X2314005D3*
X2257437Y1316406D3*
X2200868Y1259838D3*
X2144299Y1203269D3*
X2087731Y1146701D3*
X2031162Y1090132D3*
X1974594Y1033563D3*
X1918025Y976995D3*
D42*
X3937000Y127000D3*
D40*
X3683000D3*
X3429000D3*
X3175000D3*
X2921000D3*
X2667000D3*
X2413000D3*
X2159000D3*
X1905000D3*
X1651000D3*
X1397000D3*
X1143000D3*
D42*
Y1651000D3*
D40*
X1397000D3*
X1651000D3*
X1905000D3*
X2159000D3*
X2413000D3*
X2667000D3*
X2921000D3*
X3175000D3*
X3429000D3*
X3683000D3*
X3937000D3*
D42*
X127000Y381000D3*
D40*
Y635000D3*
Y889000D3*
Y1143000D3*
Y1397000D3*
Y1651000D3*
D38*
X1658000Y381000D3*
X1778000D3*
X1898000D3*
D53*
X2963000Y1333500D3*
X3133000D3*
D36*
X804000Y1016000D3*
X974000D3*
D56*
X3510500Y571500D3*
X3855500D3*
D36*
X804000D3*
X974000D3*
X1312000Y1333500D3*
X1482000D3*
X804000D3*
X974000D3*
X3312250Y1047750D3*
X3482250D3*
D34*
X3641750Y1254127D3*
X3406750D3*
D36*
X1482000Y1143000D3*
X1312000D3*
M02*
