G04 DipTrace 3.3.1.3*
G04 CR19-0914-MP2.GBL*
%MOMM*%
G04 #@! TF.FileFunction,Copper,L2,Bot*
G04 #@! TF.Part,Single*
G04 #@! TA.AperFunction,Conductor*
%ADD13C,0.3048*%
%ADD14C,0.6096*%
%ADD15C,0.4064*%
%ADD16C,0.508*%
G04 #@! TA.AperFunction,CopperBalancing*
%ADD17C,0.635*%
%ADD18C,0.32993*%
G04 #@! TA.AperFunction,ComponentPad*
%ADD21R,1.6X1.6*%
%ADD22C,1.6*%
G04 #@! TA.AperFunction,ViaPad*
%ADD28C,0.8*%
%FSLAX35Y35*%
G04*
G71*
G90*
G75*
G01*
G04 Bottom*
%LPD*%
X1905000Y127000D2*
D14*
Y381000D1*
D13*
X1397000Y889000D1*
Y1651000D2*
D14*
Y1524000D1*
X1365250Y1492250D1*
D13*
X539750D1*
X444500Y1397000D1*
D14*
X127000D1*
X539750Y1492250D2*
D13*
X508000Y1524000D1*
X254000D1*
D14*
X127000Y1651000D1*
Y1143000D2*
X698500D1*
X1397000D1*
X1524000Y1016000D1*
X2540000Y762000D2*
D16*
Y889000D1*
X2222500Y1206500D1*
X1778000D1*
X3746500Y762000D2*
D15*
X3619500Y889000D1*
X2667000D1*
X1651000Y127000D2*
X1206500Y571500D1*
Y1016000D1*
X1651000Y1397000D2*
X1905000Y1651000D1*
X1143000Y1381127D2*
X1508127D1*
X1651000Y1524000D1*
Y1651000D1*
X1143000Y127000D2*
X1016000Y254000D1*
Y762000D1*
X1111250Y857250D1*
X1397000Y127000D2*
X1111250Y412750D1*
Y666750D1*
X2159000Y127000D2*
X2032000Y254000D1*
Y571500D1*
X1714500Y889000D1*
X2413000Y127000D2*
X2159000Y381000D1*
Y889000D1*
X2667000Y127000D2*
X2540000Y254000D1*
Y635000D1*
X2413000Y762000D1*
Y889000D1*
X3175000Y1174750D2*
Y1651000D1*
D28*
X1651000Y1397000D3*
X1143000Y1381127D3*
X698500Y1143000D3*
X1714500Y889000D3*
X2159000D3*
X2413000D3*
X2667000D3*
X3746500Y762000D3*
X1206500Y571500D3*
Y1016000D3*
X3175000Y1174750D3*
X2540000Y762000D3*
X1524000Y1016000D3*
X2413000Y1143000D3*
X3873500Y889000D3*
X1111250Y666750D3*
X3302000Y1460500D3*
X3048000D3*
X1111250Y857250D3*
X1397000Y889000D3*
X1778000Y1206500D3*
X2413000Y635000D3*
X245993Y1556083D2*
D17*
X989347D1*
X245080Y1492917D2*
X1489647D1*
X1877137D2*
X3081053D1*
X3268933D2*
X3898903D1*
X276980Y1429750D2*
X1041027D1*
X1813973D2*
X3081053D1*
X3268933D2*
X3898903D1*
X277437Y1366583D2*
X1030363D1*
X1760197D2*
X3081053D1*
X3268933D2*
X3898903D1*
X247087Y1303417D2*
X1062720D1*
X1554937D2*
X1592187D1*
X1830380D2*
X3081053D1*
X3268933D2*
X3898903D1*
X1413387Y1240250D2*
X1669840D1*
X2326213D2*
X3081053D1*
X3268933D2*
X3898903D1*
X1507540Y1177083D2*
X1668473D1*
X2389377D2*
X3061363D1*
X3288623D2*
X3898903D1*
X1574170Y1113917D2*
X1717420D1*
X2452540D2*
X3080323D1*
X3269753D2*
X3898903D1*
X1631863Y1050750D2*
X2240780D1*
X2515707D2*
X3898903D1*
X1316317Y987583D2*
X1407797D1*
X1633780D2*
X1665830D1*
X1763207D2*
X2110350D1*
X2207633D2*
X2304033D1*
X2578870D2*
X2618303D1*
X2715680D2*
X3898903D1*
X1300457Y924417D2*
X1461757D1*
X1822087D2*
X2051377D1*
X2266603D2*
X2305400D1*
X3714363D2*
X3898903D1*
X1300457Y861250D2*
X1604490D1*
X1872490D2*
X2049007D1*
X2268973D2*
X2303030D1*
X3793570D2*
X3898903D1*
X1300457Y798083D2*
X1651157D1*
X1935653D2*
X2065050D1*
X2252933D2*
X2319073D1*
X1300457Y734917D2*
X1738383D1*
X1998817D2*
X2065050D1*
X2252933D2*
X2323357D1*
X1300457Y671750D2*
X1801547D1*
X2252933D2*
X2373030D1*
X1313493Y608583D2*
X1864710D1*
X2281917D2*
X2436197D1*
X1362803Y545417D2*
X1927877D1*
X2293583D2*
X2446040D1*
X1425967Y482250D2*
X1938083D1*
X2293583D2*
X2446040D1*
X1489130Y419083D2*
X1938083D1*
X2293583D2*
X2446040D1*
X1552293Y355917D2*
X1938083D1*
X2314363D2*
X2446040D1*
X1615457Y292750D2*
X1938083D1*
X2377530D2*
X2446040D1*
X2391260Y272627D2*
X2413000Y274283D1*
X2436040Y272470D1*
X2452383Y268803D1*
X2452397Y598623D1*
X2346383Y705107D1*
X2338303Y716227D1*
X2332063Y728477D1*
X2327817Y741550D1*
X2325667Y755127D1*
X2325397Y826987D1*
X2317410Y840293D1*
X2310967Y855847D1*
X2307037Y872217D1*
X2305717Y889000D1*
X2307037Y905783D1*
X2310967Y922153D1*
X2317410Y937707D1*
X2326203Y952060D1*
X2335197Y962760D1*
X2184117Y1113810D1*
X1832123Y1113817D1*
X1819057Y1107383D1*
X1803047Y1102180D1*
X1786417Y1099547D1*
X1769583D1*
X1752953Y1102180D1*
X1736943Y1107383D1*
X1721943Y1115023D1*
X1708323Y1124920D1*
X1696420Y1136823D1*
X1686523Y1150443D1*
X1678883Y1165443D1*
X1673680Y1181453D1*
X1671047Y1198083D1*
Y1214917D1*
X1673680Y1231547D1*
X1678883Y1247557D1*
X1686523Y1262557D1*
X1696420Y1276177D1*
X1708323Y1288080D1*
X1721943Y1297977D1*
X1736943Y1305617D1*
X1752953Y1310820D1*
X1769583Y1313453D1*
X1786417D1*
X1803047Y1310820D1*
X1819057Y1305617D1*
X1831903Y1299180D1*
X2229773Y1298900D1*
X2244137Y1296623D1*
X2257970Y1292130D1*
X2270927Y1285527D1*
X2282693Y1276977D1*
X2370533Y1189543D1*
X2593207Y966867D1*
X2603940Y975797D1*
X2618293Y984590D1*
X2633847Y991033D1*
X2650217Y994963D1*
X2667000Y996283D1*
X2683783Y994963D1*
X2700153Y991033D1*
X2715707Y984590D1*
X2728830Y976617D1*
X3626373Y976333D1*
X3639950Y974183D1*
X3653023Y969937D1*
X3665273Y963697D1*
X3676393Y955617D1*
X3764650Y867740D1*
X3779653Y864033D1*
X3795207Y857590D1*
X3809560Y848797D1*
X3822363Y837863D1*
X3831970Y826740D1*
X3905250Y827000D1*
Y1507220D1*
X3891487Y1510923D1*
X3870133Y1519770D1*
X3850427Y1531843D1*
X3832853Y1546853D1*
X3817843Y1564427D1*
X3810030Y1576527D1*
X3802157Y1564427D1*
X3787147Y1546853D1*
X3769573Y1531843D1*
X3749867Y1519770D1*
X3728513Y1510923D1*
X3706040Y1505530D1*
X3683000Y1503717D1*
X3659960Y1505530D1*
X3637487Y1510923D1*
X3616133Y1519770D1*
X3596427Y1531843D1*
X3578853Y1546853D1*
X3563843Y1564427D1*
X3556030Y1576527D1*
X3548157Y1564427D1*
X3533147Y1546853D1*
X3515573Y1531843D1*
X3495867Y1519770D1*
X3474513Y1510923D1*
X3452040Y1505530D1*
X3429000Y1503717D1*
X3405960Y1505530D1*
X3383487Y1510923D1*
X3362133Y1519770D1*
X3342427Y1531843D1*
X3324853Y1546853D1*
X3309843Y1564427D1*
X3302030Y1576527D1*
X3294157Y1564427D1*
X3279147Y1546853D1*
X3262600Y1532657D1*
X3262603Y1236743D1*
X3270590Y1223457D1*
X3277033Y1207903D1*
X3280963Y1191533D1*
X3282283Y1174750D1*
X3280963Y1157967D1*
X3277033Y1141597D1*
X3270590Y1126043D1*
X3261797Y1111690D1*
X3250863Y1098887D1*
X3238060Y1087953D1*
X3223707Y1079160D1*
X3208153Y1072717D1*
X3191783Y1068787D1*
X3175000Y1067467D1*
X3158217Y1068787D1*
X3141847Y1072717D1*
X3126293Y1079160D1*
X3111940Y1087953D1*
X3099137Y1098887D1*
X3088203Y1111690D1*
X3079410Y1126043D1*
X3072967Y1141597D1*
X3069037Y1157967D1*
X3067717Y1174750D1*
X3069037Y1191533D1*
X3072967Y1207903D1*
X3079410Y1223457D1*
X3087383Y1236580D1*
X3087397Y1532680D1*
X3070853Y1546853D1*
X3055843Y1564427D1*
X3048030Y1576527D1*
X3040157Y1564427D1*
X3025147Y1546853D1*
X3007573Y1531843D1*
X2987867Y1519770D1*
X2966513Y1510923D1*
X2944040Y1505530D1*
X2921000Y1503717D1*
X2897960Y1505530D1*
X2875487Y1510923D1*
X2854133Y1519770D1*
X2834427Y1531843D1*
X2816853Y1546853D1*
X2801843Y1564427D1*
X2794030Y1576527D1*
X2786157Y1564427D1*
X2771147Y1546853D1*
X2753573Y1531843D1*
X2733867Y1519770D1*
X2712513Y1510923D1*
X2690040Y1505530D1*
X2667000Y1503717D1*
X2643960Y1505530D1*
X2621487Y1510923D1*
X2600133Y1519770D1*
X2580427Y1531843D1*
X2562853Y1546853D1*
X2547843Y1564427D1*
X2540030Y1576527D1*
X2532157Y1564427D1*
X2517147Y1546853D1*
X2499573Y1531843D1*
X2479867Y1519770D1*
X2458513Y1510923D1*
X2436040Y1505530D1*
X2413000Y1503717D1*
X2389960Y1505530D1*
X2367487Y1510923D1*
X2346133Y1519770D1*
X2326427Y1531843D1*
X2308853Y1546853D1*
X2293843Y1564427D1*
X2286030Y1576527D1*
X2278157Y1564427D1*
X2263147Y1546853D1*
X2245573Y1531843D1*
X2225867Y1519770D1*
X2204513Y1510923D1*
X2182040Y1505530D1*
X2159000Y1503717D1*
X2135960Y1505530D1*
X2113487Y1510923D1*
X2092133Y1519770D1*
X2072427Y1531843D1*
X2054853Y1546853D1*
X2039843Y1564427D1*
X2032030Y1576527D1*
X2024157Y1564427D1*
X2009147Y1546853D1*
X1991573Y1531843D1*
X1971867Y1519770D1*
X1950513Y1510923D1*
X1928040Y1505530D1*
X1905000Y1503717D1*
X1883260Y1505373D1*
X1756777Y1378883D1*
X1753033Y1363847D1*
X1746590Y1348293D1*
X1737797Y1333940D1*
X1726863Y1321137D1*
X1714060Y1310203D1*
X1699707Y1301410D1*
X1684153Y1294967D1*
X1667783Y1291037D1*
X1651000Y1289717D1*
X1634217Y1291037D1*
X1617847Y1294967D1*
X1602293Y1301410D1*
X1587940Y1310203D1*
X1573643Y1322757D1*
X1559620Y1310253D1*
X1547900Y1303070D1*
X1535197Y1297810D1*
X1521830Y1294600D1*
X1508100Y1293523D1*
X1204883D1*
X1191707Y1285537D1*
X1176153Y1279093D1*
X1159783Y1275163D1*
X1143000Y1273843D1*
X1126217Y1275163D1*
X1109847Y1279093D1*
X1094293Y1285537D1*
X1079940Y1294330D1*
X1067137Y1305263D1*
X1056203Y1318067D1*
X1047410Y1332420D1*
X1040967Y1347973D1*
X1037037Y1364343D1*
X1035717Y1381127D1*
X1037037Y1397910D1*
X1040967Y1414280D1*
X1047410Y1429833D1*
X1056203Y1444187D1*
X1067137Y1456990D1*
X1079940Y1467923D1*
X1094293Y1476717D1*
X1109847Y1483160D1*
X1126217Y1487090D1*
X1143000Y1488410D1*
X1159783Y1487090D1*
X1176153Y1483160D1*
X1191707Y1476717D1*
X1204830Y1468743D1*
X1471763Y1468730D1*
X1548463Y1545353D1*
X1539003Y1555347D1*
X1525420Y1574043D1*
X1524030Y1576527D1*
X1516157Y1564427D1*
X1501147Y1546853D1*
X1483573Y1531843D1*
X1463867Y1519770D1*
X1442513Y1510923D1*
X1420040Y1505530D1*
X1397000Y1503717D1*
X1373960Y1505530D1*
X1351487Y1510923D1*
X1330133Y1519770D1*
X1310427Y1531843D1*
X1292853Y1546853D1*
X1290310Y1549607D1*
X1290283Y1503717D1*
X995717D1*
Y1619197D1*
X270840Y1619250D1*
X267077Y1605487D1*
X258230Y1584133D1*
X246157Y1564427D1*
X231147Y1546853D1*
X213573Y1531843D1*
X201473Y1524030D1*
X213573Y1516157D1*
X231147Y1501147D1*
X246157Y1483573D1*
X258230Y1463867D1*
X267077Y1442513D1*
X272470Y1420040D1*
X274283Y1397000D1*
X272470Y1373960D1*
X267077Y1351487D1*
X258230Y1330133D1*
X246157Y1310427D1*
X231147Y1292853D1*
X213573Y1277843D1*
X201473Y1270030D1*
X213573Y1262157D1*
X231147Y1247147D1*
X237063Y1240743D1*
X654280Y1240763D1*
X673453Y1247320D1*
X690083Y1249953D1*
X706917D1*
X723547Y1247320D1*
X739557Y1242117D1*
X742513Y1240753D1*
X1404670Y1240463D1*
X1419823Y1238063D1*
X1434413Y1233323D1*
X1448083Y1226357D1*
X1460493Y1217340D1*
X1548627Y1129633D1*
X1561837Y1116423D1*
X1580057Y1107477D1*
X1593677Y1097580D1*
X1605580Y1085677D1*
X1615477Y1072057D1*
X1623117Y1057057D1*
X1628320Y1041047D1*
X1630953Y1024417D1*
Y1007583D1*
X1628320Y990953D1*
X1623117Y974943D1*
X1615477Y959943D1*
X1605580Y946323D1*
X1593677Y934420D1*
X1580057Y924523D1*
X1565057Y916883D1*
X1549047Y911680D1*
X1532417Y909047D1*
X1515583D1*
X1498953Y911680D1*
X1482943Y916883D1*
X1467943Y924523D1*
X1454323Y934420D1*
X1442420Y946323D1*
X1432523Y959943D1*
X1424883Y974943D1*
X1423753Y978000D1*
X1356457Y1045283D1*
X1309773Y1045237D1*
X1312463Y1032783D1*
X1313783Y1016000D1*
X1312463Y999217D1*
X1308533Y982847D1*
X1302090Y967293D1*
X1294117Y954170D1*
X1294103Y633460D1*
X1302090Y620207D1*
X1308533Y604653D1*
X1312173Y589737D1*
X1629173Y272720D1*
X1651000Y274283D1*
X1674040Y272470D1*
X1696513Y267077D1*
X1717867Y258230D1*
X1737573Y246157D1*
X1755147Y231147D1*
X1770157Y213573D1*
X1777970Y201473D1*
X1788697Y217370D1*
X1801053Y231343D1*
X1815077Y243647D1*
X1830540Y254077D1*
X1847200Y262470D1*
X1864787Y268690D1*
X1883020Y272637D1*
X1901603Y274247D1*
X1920243Y273493D1*
X1938637Y270393D1*
X1944410Y268900D1*
X1944397Y535183D1*
X1696337Y783273D1*
X1681347Y786967D1*
X1665793Y793410D1*
X1651440Y802203D1*
X1638637Y813137D1*
X1627703Y825940D1*
X1618910Y840293D1*
X1612467Y855847D1*
X1608537Y872217D1*
X1607217Y889000D1*
X1608537Y905783D1*
X1612467Y922153D1*
X1618910Y937707D1*
X1627703Y952060D1*
X1638637Y964863D1*
X1651440Y975797D1*
X1665793Y984590D1*
X1681347Y991033D1*
X1697717Y994963D1*
X1714500Y996283D1*
X1731283Y994963D1*
X1747653Y991033D1*
X1763207Y984590D1*
X1777560Y975797D1*
X1790363Y964863D1*
X1801297Y952060D1*
X1810090Y937707D1*
X1816533Y922153D1*
X1820173Y907237D1*
X2071433Y655960D1*
X2071397Y827160D1*
X2063410Y840293D1*
X2056967Y855847D1*
X2053037Y872217D1*
X2051717Y889000D1*
X2053037Y905783D1*
X2056967Y922153D1*
X2063410Y937707D1*
X2072203Y952060D1*
X2083137Y964863D1*
X2095940Y975797D1*
X2110293Y984590D1*
X2125847Y991033D1*
X2142217Y994963D1*
X2159000Y996283D1*
X2175783Y994963D1*
X2192153Y991033D1*
X2207707Y984590D1*
X2222060Y975797D1*
X2234863Y964863D1*
X2245797Y952060D1*
X2254590Y937707D1*
X2261033Y922153D1*
X2264963Y905783D1*
X2266283Y889000D1*
X2264963Y872217D1*
X2261033Y855847D1*
X2254590Y840293D1*
X2246617Y827170D1*
X2246603Y631513D1*
X2256330Y626703D1*
X2264550Y620733D1*
X2271733Y613550D1*
X2277703Y605330D1*
X2282317Y596277D1*
X2285457Y586613D1*
X2287047Y576580D1*
X2287243Y376720D1*
X2391287Y272603D1*
X1905000Y274193D2*
D18*
Y127000D1*
X1397000Y1651000D2*
Y1503807D1*
X127000Y1397000D2*
X274193D1*
D21*
X3937000Y127000D3*
D22*
X3683000D3*
X3429000D3*
X3175000D3*
X2921000D3*
X2667000D3*
X2413000D3*
X2159000D3*
X1905000D3*
X1651000D3*
X1397000D3*
X1143000D3*
D21*
Y1651000D3*
D22*
X1397000D3*
X1651000D3*
X1905000D3*
X2159000D3*
X2413000D3*
X2667000D3*
X2921000D3*
X3175000D3*
X3429000D3*
X3683000D3*
X3937000D3*
D21*
X127000Y381000D3*
D22*
Y635000D3*
Y889000D3*
Y1143000D3*
Y1397000D3*
Y1651000D3*
M02*
