G04 DipTrace 3.3.1.3*
G04 CR19-0914-MP2.GTO*
%MOMM*%
G04 #@! TF.FileFunction,Legend,Top*
G04 #@! TF.Part,Single*
%ADD10C,0.254*%
%ADD19C,0.1016*%
%ADD20O,0.42016X0.41713*%
%ADD44C,0.11765*%
%ADD45C,0.15686*%
%FSLAX35Y35*%
G04*
G71*
G90*
G75*
G01*
G04 TopSilk*
%LPD*%
X2006419Y874501D2*
D10*
X2416499Y1284581D1*
X2826652Y874429D1*
X2416571Y464348D1*
X2006419Y874501D1*
D20*
X1857762Y837613D3*
G36*
X2006419Y874501D2*
X2062981Y817938D1*
Y931063D1*
X2006419Y874501D1*
G37*
X1587500Y446000D2*
D10*
Y316000D1*
X3291997Y1206498D2*
Y1301755D1*
X254000Y1397000D2*
D19*
X285750D1*
Y1651000D1*
X254000D1*
X2968080Y911472D2*
D44*
Y856806D1*
X2971702Y845856D1*
X2979030Y838612D1*
X2989980Y834906D1*
X2997224D1*
X3008174Y838612D1*
X3015502Y845856D1*
X3019124Y856806D1*
Y911472D1*
X3042653Y896816D2*
X3049981Y900522D1*
X3060931Y911388D1*
Y834906D1*
X1740131Y600532D2*
X1791175Y523966D1*
Y600532D2*
X1740131Y523966D1*
X1814704Y585876D2*
X1822032Y589582D1*
X1832982Y600448D1*
Y523966D1*
X3051379Y1225805D2*
X3047757Y1233049D1*
X3040429Y1240377D1*
X3033185Y1243999D1*
X3018613D1*
X3011285Y1240377D1*
X3004041Y1233049D1*
X3000335Y1225805D1*
X2996713Y1214855D1*
Y1196577D1*
X3000335Y1185711D1*
X3004041Y1178383D1*
X3011285Y1171139D1*
X3018613Y1167433D1*
X3033185D1*
X3040429Y1171139D1*
X3047757Y1178383D1*
X3051379Y1185711D1*
X3074909Y1229342D2*
X3082237Y1233049D1*
X3093187Y1243914D1*
Y1167433D1*
X602354Y1016350D2*
X635120D1*
X646070Y1020056D1*
X649776Y1023678D1*
X653398Y1030922D1*
Y1038250D1*
X649776Y1045494D1*
X646070Y1049200D1*
X635120Y1052822D1*
X602354D1*
Y976256D1*
X627876Y1016350D2*
X653398Y976256D1*
X676928Y1038166D2*
X684256Y1041872D1*
X695206Y1052738D1*
Y976256D1*
X3536195Y813015D2*
X3528951Y820343D1*
X3518001Y823965D1*
X3503429D1*
X3492479Y820343D1*
X3485151Y813015D1*
Y805771D1*
X3488857Y798443D1*
X3492479Y794821D1*
X3499723Y791200D1*
X3521623Y783871D1*
X3528951Y780250D1*
X3532573Y776543D1*
X3536195Y769300D1*
Y758350D1*
X3528951Y751106D1*
X3518001Y747400D1*
X3503429D1*
X3492479Y751106D1*
X3485151Y758350D1*
X3559724Y823965D2*
X3578002Y747400D1*
X3596196Y823965D1*
X3614390Y747400D1*
X3632668Y823965D1*
X3656198Y809309D2*
X3663526Y813015D1*
X3674476Y823881D1*
Y747400D1*
X632983Y595835D2*
X629361Y603079D1*
X622033Y610407D1*
X614789Y614029D1*
X600217D1*
X592889Y610407D1*
X585645Y603079D1*
X581939Y595835D1*
X578317Y584885D1*
Y566607D1*
X581939Y555741D1*
X585645Y548413D1*
X592889Y541169D1*
X600217Y537463D1*
X614789D1*
X622033Y541169D1*
X629361Y548413D1*
X632983Y555741D1*
X660218Y595751D2*
Y599372D1*
X663840Y606701D1*
X667462Y610322D1*
X674790Y613944D1*
X689362D1*
X696606Y610322D1*
X700228Y606701D1*
X703934Y599372D1*
Y592129D1*
X700228Y584801D1*
X692984Y573935D1*
X656512Y537463D1*
X707556D1*
X1580251Y1299870D2*
X1613017D1*
X1623967Y1303576D1*
X1627673Y1307198D1*
X1631295Y1314442D1*
Y1321770D1*
X1627673Y1329014D1*
X1623967Y1332720D1*
X1613017Y1336342D1*
X1580251D1*
Y1259776D1*
X1605773Y1299870D2*
X1631295Y1259776D1*
X1658531Y1318064D2*
Y1321686D1*
X1662153Y1329014D1*
X1665775Y1332636D1*
X1673103Y1336258D1*
X1687675D1*
X1694919Y1332636D1*
X1698540Y1329014D1*
X1702247Y1321686D1*
Y1314442D1*
X1698540Y1307114D1*
X1691297Y1296248D1*
X1654825Y1259776D1*
X1705869D1*
X583925Y1328587D2*
X616691D1*
X627641Y1332293D1*
X631347Y1335915D1*
X634969Y1343159D1*
Y1350487D1*
X631347Y1357731D1*
X627641Y1361437D1*
X616691Y1365059D1*
X583925D1*
Y1288493D1*
X609447Y1328587D2*
X634969Y1288493D1*
X665826Y1364974D2*
X705836D1*
X684020Y1335831D1*
X694970D1*
X702214Y1332209D1*
X705836Y1328587D1*
X709542Y1317637D1*
Y1310393D1*
X705836Y1299443D1*
X698592Y1292115D1*
X687642Y1288493D1*
X676692D1*
X665826Y1292115D1*
X662204Y1295821D1*
X658498Y1303065D1*
X3579280Y1053950D2*
X3612046D1*
X3622996Y1057656D1*
X3626702Y1061278D1*
X3630324Y1068522D1*
Y1075850D1*
X3626702Y1083094D1*
X3622996Y1086800D1*
X3612046Y1090422D1*
X3579280D1*
Y1013856D1*
X3604802Y1053950D2*
X3630324Y1013856D1*
X3690326D2*
Y1090338D1*
X3653854Y1039378D1*
X3708520D1*
X3748018Y1290724D2*
Y1214158D1*
X3791734D1*
X3862601Y1290724D2*
X3815263D1*
Y1214158D1*
X3862601D1*
X3815263Y1254252D2*
X3844407D1*
X3886130Y1290724D2*
Y1214158D1*
X3911652D1*
X3922602Y1217864D1*
X3929930Y1225108D1*
X3933552Y1232436D1*
X3937174Y1243302D1*
Y1261580D1*
X3933552Y1272530D1*
X3929930Y1279774D1*
X3922602Y1287102D1*
X3911652Y1290724D1*
X3886130D1*
X3960704Y1276067D2*
X3968032Y1279774D1*
X3978982Y1290639D1*
Y1214158D1*
X1331676Y1027238D2*
X1328054Y1034482D1*
X1320726Y1041810D1*
X1313482Y1045432D1*
X1298910D1*
X1291582Y1041810D1*
X1284338Y1034482D1*
X1280632Y1027238D1*
X1277010Y1016288D1*
Y998010D1*
X1280632Y987144D1*
X1284338Y979816D1*
X1291582Y972572D1*
X1298910Y968866D1*
X1313482D1*
X1320726Y972572D1*
X1328054Y979816D1*
X1331676Y987144D1*
X1355205Y1005338D2*
X1388055D1*
X1398921Y1008960D1*
X1402627Y1012666D1*
X1406249Y1019910D1*
Y1030860D1*
X1402627Y1038104D1*
X1398921Y1041810D1*
X1388055Y1045432D1*
X1355205D1*
Y968866D1*
X1429779Y1030776D2*
X1437107Y1034482D1*
X1448057Y1045348D1*
Y968866D1*
X3925540Y295071D2*
X3936490Y291365D1*
X3943819Y284121D1*
X3947440Y273171D1*
Y269549D1*
X3943818Y258599D1*
X3936490Y251356D1*
X3925540Y247649D1*
X3921918D1*
X3910968Y251356D1*
X3903725Y258599D1*
X3900103Y269549D1*
Y273171D1*
X3903725Y284121D1*
X3910969Y291365D1*
X3925540Y295071D1*
X3943819D1*
X3962012Y291365D1*
X3972962Y284121D1*
X3976584Y273171D1*
Y265927D1*
X3972962Y254977D1*
X3965634Y251356D1*
X3644333Y264077D2*
X3647955Y253211D1*
X3655198Y249505D1*
X3662526D1*
X3669770Y253211D1*
X3673477Y260455D1*
X3677098Y275026D1*
X3680720Y285976D1*
X3688049Y293220D1*
X3695292Y296842D1*
X3706242D1*
X3713486Y293220D1*
X3717192Y289598D1*
X3720814Y278648D1*
Y264076D1*
X3717192Y253211D1*
X3713486Y249505D1*
X3706242Y245883D1*
X3695292D1*
X3688048Y249505D1*
X3680720Y256833D1*
X3677098Y267698D1*
X3673477Y282270D1*
X3669770Y289598D1*
X3662527Y293220D1*
X3655199D1*
X3647955Y289598D1*
X3644333Y278648D1*
Y264077D1*
X3466771Y260411D2*
X3390289Y296883D1*
Y245839D1*
X3149009Y291408D2*
X3141765Y287786D1*
X3138143Y276837D1*
Y269593D1*
X3141765Y258643D1*
X3152715Y251315D1*
X3170908Y247693D1*
X3189102D1*
X3203674Y251315D1*
X3211002Y258643D1*
X3214624Y269593D1*
Y273214D1*
X3211002Y284080D1*
X3203674Y291408D1*
X3192724Y295030D1*
X3189102D1*
X3178152Y291408D1*
X3170909Y284080D1*
X3167287Y273215D1*
Y269593D1*
X3170908Y258643D1*
X3178152Y251315D1*
X3189102Y247693D1*
X2882289Y289558D2*
Y253171D1*
X2915055Y249549D1*
X2911433Y253171D1*
X2907727Y264121D1*
Y274986D1*
X2911433Y285936D1*
X2918677Y293265D1*
X2929627Y296886D1*
X2936871D1*
X2947821Y293264D1*
X2955149Y285936D1*
X2958771Y274986D1*
Y264121D1*
X2955149Y253171D1*
X2951443Y249549D1*
X2944199Y245843D1*
X2702961Y280498D2*
X2626479D1*
X2677439Y244026D1*
Y298692D1*
X2374293Y253171D2*
Y293180D1*
X2403437Y271365D1*
Y282315D1*
X2407059Y289558D1*
X2410680Y293180D1*
X2421630Y296886D1*
X2428874D1*
X2439824Y293180D1*
X2447152Y285936D1*
X2450774Y274986D1*
Y264036D1*
X2447152Y253171D1*
X2443446Y249549D1*
X2436202Y245843D1*
X2138483Y249549D2*
X2134861D1*
X2127533Y253171D1*
X2123911Y256793D1*
X2120289Y264121D1*
Y278693D1*
X2123911Y285936D1*
X2127533Y289558D1*
X2134861Y293265D1*
X2142105D1*
X2149433Y289558D1*
X2160299Y282315D1*
X2196771Y245843D1*
Y296886D1*
X1993712Y296158D2*
X1986469Y292536D1*
X1979140Y285208D1*
X1975518Y277965D1*
Y263393D1*
X1979140Y256065D1*
X1986468Y248821D1*
X1993712Y245115D1*
X2004662Y241493D1*
X2022940D1*
X2033806Y245115D1*
X2041134Y248821D1*
X2048378Y256065D1*
X2052084Y263393D1*
Y277964D1*
X2048378Y285208D1*
X2041134Y292536D1*
X2033806Y296158D1*
X2022940D1*
Y277965D1*
X1975519Y370732D2*
X2052084Y370731D1*
X1975519Y319688D1*
X2052084D1*
X1975519Y394261D2*
X2052084D1*
Y419783D1*
X2048378Y430733D1*
X2041134Y438061D1*
X2033806Y441683D1*
X2022940Y445305D1*
X2004662D1*
X1993712Y441683D1*
X1986469Y438061D1*
X1979140Y430733D1*
X1975519Y419783D1*
Y394261D1*
X1494730Y245563D2*
Y278328D1*
X1491024Y289278D1*
X1487402Y292985D1*
X1480159Y296606D1*
X1472830D1*
X1465587Y292985D1*
X1461880Y289278D1*
X1458258Y278328D1*
Y245563D1*
X1534824D1*
X1494730Y271085D2*
X1534824Y296606D1*
X1469209Y371180D2*
X1461880Y363936D1*
X1458259Y352986D1*
Y338414D1*
X1461880Y327464D1*
X1469209Y320136D1*
X1476452D1*
X1483780Y323842D1*
X1487402Y327464D1*
X1491024Y334708D1*
X1498352Y356608D1*
X1501974Y363936D1*
X1505680Y367558D1*
X1512924Y371180D1*
X1523874Y371179D1*
X1531118Y363936D1*
X1534824Y352986D1*
Y338414D1*
X1531118Y327464D1*
X1523874Y320136D1*
X1458259Y420231D2*
X1534824D1*
X1458259Y394709D2*
Y445753D1*
X1309155Y269938D2*
X1385721D1*
X1309155Y244416D2*
Y295460D1*
Y318989D2*
X1385721Y370033D1*
X1309155D2*
X1385721Y318989D1*
X1309239Y415462D2*
X1312861Y404512D1*
X1323811Y397184D1*
X1342005Y393562D1*
X1352955D1*
X1371149Y397184D1*
X1382099Y404512D1*
X1385721Y415462D1*
Y422706D1*
X1382099Y433656D1*
X1371149Y440900D1*
X1352955Y444606D1*
X1342005D1*
X1323811Y440900D1*
X1312861Y433656D1*
X1309239Y422706D1*
Y415462D1*
X1323811Y440900D2*
X1371149Y397184D1*
X1141860Y247023D2*
Y279788D1*
X1138154Y290738D1*
X1134532Y294445D1*
X1127289Y298066D1*
X1119960D1*
X1112717Y294445D1*
X1109010Y290738D1*
X1105388Y279788D1*
Y247023D1*
X1181954D1*
X1141860Y272545D2*
X1181954Y298066D1*
X1105389Y321596D2*
X1181954Y372639D1*
X1105389Y372640D2*
X1181954Y321596D1*
X1105473Y418069D2*
X1109095Y407119D1*
X1120045Y399791D1*
X1138239Y396169D1*
X1149188D1*
X1167382Y399791D1*
X1178332Y407119D1*
X1181954Y418069D1*
Y425313D1*
X1178332Y436263D1*
X1167382Y443507D1*
X1149188Y447213D1*
X1138238D1*
X1120045Y443507D1*
X1109095Y436263D1*
X1105473Y425313D1*
Y418069D1*
X1120045Y443507D2*
X1167382Y399791D1*
X3914675Y1438276D2*
X3910968Y1445604D1*
X3900103Y1456554D1*
X3976584D1*
X3900103Y1501983D2*
X3903725Y1491033D1*
X3914675Y1483705D1*
X3932869Y1480083D1*
X3943819D1*
X3962012Y1483705D1*
X3972962Y1491033D1*
X3976584Y1501983D1*
Y1509227D1*
X3972962Y1520177D1*
X3962012Y1527421D1*
X3943819Y1531127D1*
X3932869D1*
X3914675Y1527421D1*
X3903725Y1520177D1*
X3900103Y1509227D1*
Y1501983D1*
X3914675Y1527421D2*
X3962012Y1483705D1*
X3640938Y1387598D2*
X3717504D1*
X3640938Y1362076D2*
X3640939Y1413120D1*
Y1436649D2*
X3717504Y1487693D1*
X3640939D2*
X3717504Y1436649D1*
X3655595Y1511222D2*
X3651889Y1518550D1*
X3641023Y1529500D1*
X3717504D1*
X3428490Y1363979D2*
Y1396745D1*
X3424784Y1407695D1*
X3421162Y1411401D1*
X3413919Y1415023D1*
X3406590D1*
X3399347Y1411401D1*
X3395640Y1407695D1*
X3392018Y1396745D1*
Y1363979D1*
X3468584D1*
X3428490Y1389501D2*
X3468584Y1415023D1*
X3392019Y1438553D2*
X3468584Y1489596D1*
X3392019D2*
X3468584Y1438552D1*
X3406675Y1513126D2*
X3402969Y1520454D1*
X3392103Y1531404D1*
X3468584D1*
X3156848Y1442449D2*
X3153142Y1449777D1*
X3142276Y1460727D1*
X3218758D1*
X3142276Y1491585D2*
Y1531594D1*
X3171420Y1509779D1*
Y1520729D1*
X3175042Y1527972D1*
X3178664Y1531594D1*
X3189614Y1535300D1*
X3196858D1*
X3207808Y1531594D1*
X3215136Y1524350D1*
X3218758Y1513400D1*
Y1502450D1*
X3215136Y1491585D1*
X3211430Y1487963D1*
X3204186Y1484257D1*
X2902918Y1455179D2*
X2873690Y1531745D1*
X2844546Y1455179D1*
X2855496Y1480701D2*
X2891968D1*
X2948347Y1531661D2*
X2937397Y1528039D1*
X2930069Y1517089D1*
X2926447Y1498895D1*
Y1487945D1*
X2930069Y1469751D1*
X2937397Y1458801D1*
X2948347Y1455179D1*
X2955591D1*
X2966541Y1458801D1*
X2973785Y1469751D1*
X2977491Y1487945D1*
Y1498895D1*
X2973785Y1517089D1*
X2966541Y1528039D1*
X2955591Y1531661D1*
X2948347D1*
X2973785Y1517089D2*
X2930069Y1469751D1*
X2681684Y1455179D2*
X2652456Y1531745D1*
X2623312Y1455179D1*
X2634262Y1480701D2*
X2670734D1*
X2705214Y1517089D2*
X2712542Y1520795D1*
X2723492Y1531661D1*
Y1455179D1*
X2410794D2*
X2381566Y1531745D1*
X2352422Y1455179D1*
X2363372Y1480701D2*
X2399844D1*
X2438030Y1513467D2*
Y1517089D1*
X2441652Y1524417D1*
X2445274Y1528039D1*
X2452602Y1531661D1*
X2467174D1*
X2474418Y1528039D1*
X2478039Y1524417D1*
X2481746Y1517089D1*
Y1509845D1*
X2478039Y1502517D1*
X2470796Y1491651D1*
X2434324Y1455179D1*
X2485368D1*
X2156794D2*
X2127566Y1531745D1*
X2098422Y1455179D1*
X2109372Y1480701D2*
X2145844D1*
X2187652Y1531661D2*
X2227661D1*
X2205846Y1502517D1*
X2216796D1*
X2224039Y1498895D1*
X2227661Y1495273D1*
X2231368Y1484323D1*
Y1477079D1*
X2227661Y1466129D1*
X2220418Y1458801D1*
X2209468Y1455179D1*
X2198518D1*
X2187652Y1458801D1*
X2184030Y1462507D1*
X2180324Y1469751D1*
X1868516Y1520795D2*
X1861272Y1528123D1*
X1850322Y1531745D1*
X1835750D1*
X1824800Y1528123D1*
X1817472Y1520795D1*
Y1513551D1*
X1821179Y1506223D1*
X1824800Y1502601D1*
X1832044Y1498979D1*
X1853944Y1491651D1*
X1861272Y1488029D1*
X1864894Y1484323D1*
X1868516Y1477079D1*
Y1466129D1*
X1861272Y1458885D1*
X1850322Y1455179D1*
X1835750D1*
X1824800Y1458885D1*
X1817472Y1466129D1*
X1892046Y1531745D2*
Y1455179D1*
X1917568D1*
X1928518Y1458885D1*
X1935846Y1466129D1*
X1939468Y1473457D1*
X1943089Y1484323D1*
Y1502601D1*
X1939468Y1513551D1*
X1935846Y1520795D1*
X1928518Y1528123D1*
X1917568Y1531745D1*
X1892046D1*
X2024991Y1455179D2*
X1995763Y1531745D1*
X1966619Y1455179D1*
X1977569Y1480701D2*
X2014041D1*
X1609676Y1520795D2*
X1602432Y1528123D1*
X1591482Y1531745D1*
X1576910D1*
X1565960Y1528123D1*
X1558632Y1520795D1*
Y1513551D1*
X1562339Y1506223D1*
X1565960Y1502601D1*
X1573204Y1498979D1*
X1595104Y1491651D1*
X1602432Y1488029D1*
X1606054Y1484323D1*
X1609676Y1477079D1*
Y1466129D1*
X1602432Y1458885D1*
X1591482Y1455179D1*
X1576910D1*
X1565960Y1458885D1*
X1558632Y1466129D1*
X1687871Y1513551D2*
X1684249Y1520795D1*
X1676921Y1528123D1*
X1669678Y1531745D1*
X1655106D1*
X1647778Y1528123D1*
X1640534Y1520795D1*
X1636828Y1513551D1*
X1633206Y1502601D1*
Y1484323D1*
X1636828Y1473457D1*
X1640534Y1466129D1*
X1647778Y1458885D1*
X1655106Y1455179D1*
X1669678D1*
X1676921Y1458885D1*
X1684249Y1466129D1*
X1687871Y1473457D1*
X1711401Y1531745D2*
Y1455179D1*
X1755117D1*
X1032432Y1531745D2*
X1061576Y1455179D1*
X1090720Y1531745D1*
X1168915Y1513551D2*
X1165293Y1520795D1*
X1157965Y1528123D1*
X1150721Y1531745D1*
X1136149D1*
X1128821Y1528123D1*
X1121578Y1520795D1*
X1117871Y1513551D1*
X1114249Y1502601D1*
Y1484323D1*
X1117871Y1473457D1*
X1121578Y1466129D1*
X1128821Y1458885D1*
X1136149Y1455179D1*
X1150721D1*
X1157965Y1458885D1*
X1165293Y1466129D1*
X1168915Y1473457D1*
X1247110Y1513551D2*
X1243488Y1520795D1*
X1236160Y1528123D1*
X1228917Y1531745D1*
X1214345D1*
X1207017Y1528123D1*
X1199773Y1520795D1*
X1196067Y1513551D1*
X1192445Y1502601D1*
Y1484323D1*
X1196067Y1473457D1*
X1199773Y1466129D1*
X1207017Y1458885D1*
X1214345Y1455179D1*
X1228917D1*
X1236160Y1458885D1*
X1243488Y1466129D1*
X1247110Y1473457D1*
X1351968Y1513551D2*
X1348346Y1520795D1*
X1341018Y1528123D1*
X1333774Y1531745D1*
X1319202D1*
X1311874Y1528123D1*
X1304630Y1520795D1*
X1300924Y1513551D1*
X1297302Y1502601D1*
Y1484323D1*
X1300924Y1473457D1*
X1304630Y1466129D1*
X1311874Y1458885D1*
X1319202Y1455179D1*
X1333774D1*
X1341018Y1458885D1*
X1348346Y1466129D1*
X1351968Y1473457D1*
Y1484323D1*
X1333774D1*
X1426541Y1531745D2*
Y1455179D1*
X1375498Y1531745D1*
Y1455179D1*
X1450071Y1531745D2*
Y1455179D1*
X1475593D1*
X1486543Y1458885D1*
X1493871Y1466129D1*
X1497493Y1473457D1*
X1501115Y1484323D1*
Y1502601D1*
X1497493Y1513551D1*
X1493871Y1520795D1*
X1486543Y1528123D1*
X1475593Y1531745D1*
X1450071D1*
X3371630Y413039D2*
Y445805D1*
X3367924Y456755D1*
X3364302Y460461D1*
X3357059Y464083D1*
X3349730D1*
X3342487Y460461D1*
X3338780Y456755D1*
X3335158Y445805D1*
Y413039D1*
X3411724D1*
X3371630Y438561D2*
X3411724Y464083D1*
X3335159Y534950D2*
Y487613D1*
X3411724Y487612D1*
Y534950D1*
X3371630Y487612D2*
Y516756D1*
X3346109Y609523D2*
X3338780Y602279D1*
X3335159Y591329D1*
Y576758D1*
X3338780Y565808D1*
X3346109Y558479D1*
X3353352D1*
X3360680Y562186D1*
X3364302Y565808D1*
X3367924Y573051D1*
X3375252Y594951D1*
X3378874Y602279D1*
X3382580Y605901D1*
X3389824Y609523D1*
X3400774D1*
X3408018Y602279D1*
X3411724Y591329D1*
Y576757D1*
X3408018Y565807D1*
X3400774Y558479D1*
X3335158Y680390D2*
X3335159Y633053D1*
X3411724D1*
Y680390D1*
X3371630Y633053D2*
Y662197D1*
X3335158Y729442D2*
X3411724D1*
X3335158Y703920D2*
Y754964D1*
X432736Y317517D2*
D45*
X476424D1*
X491024Y322459D1*
X495966Y327288D1*
X500795Y336947D1*
Y346717D1*
X495966Y356376D1*
X491024Y361317D1*
X476424Y366147D1*
X432736D1*
Y264059D1*
X466766Y317517D2*
X500795Y264059D1*
X532167Y366147D2*
Y264059D1*
X600226Y366147D2*
Y264059D1*
X532167Y317517D2*
X600226D1*
X631598Y366147D2*
Y264059D1*
X731030Y366147D2*
Y264059D1*
X662971Y366147D1*
Y264059D1*
X791602Y366147D2*
X781831Y361317D1*
X772173Y351547D1*
X767231Y341888D1*
X762402Y327288D1*
Y302917D1*
X767231Y288430D1*
X772173Y278659D1*
X781831Y269000D1*
X791602Y264059D1*
X811031D1*
X820690Y269000D1*
X830461Y278659D1*
X835290Y288430D1*
X840119Y302917D1*
Y327288D1*
X835290Y341888D1*
X830461Y351547D1*
X820690Y361317D1*
X811031Y366147D1*
X791602D1*
X279888Y278769D2*
D44*
X356454D1*
Y304291D1*
X352748Y315241D1*
X345504Y322569D1*
X338176Y326191D1*
X327310Y329813D1*
X309032D1*
X298082Y326191D1*
X290839Y322569D1*
X283510Y315241D1*
X279888Y304291D1*
Y278769D1*
X279889Y378864D2*
X356454D1*
X279889Y353343D2*
Y404386D1*
X316360Y427916D2*
Y460681D1*
X312654Y471631D1*
X309032Y475338D1*
X301788Y478959D1*
X294460D1*
X287217Y475338D1*
X283510Y471631D1*
X279889Y460681D1*
Y427916D1*
X356454D1*
X316360Y453438D2*
X356454Y478959D1*
X279888Y560831D2*
X356454D1*
X279888Y535309D2*
X279889Y586353D1*
Y609883D2*
X356454Y660926D1*
X279889D2*
X356454Y609882D1*
X279973Y706356D2*
X283595Y695406D1*
X294545Y688078D1*
X312739Y684456D1*
X323688D1*
X341882Y688077D1*
X352832Y695406D1*
X356454Y706356D1*
Y713599D1*
X352832Y724549D1*
X341882Y731793D1*
X323688Y735499D1*
X312738D1*
X294545Y731793D1*
X283595Y724549D1*
X279973Y713599D1*
Y706356D1*
X294545Y731793D2*
X341882Y688077D1*
X316360Y789309D2*
Y822075D1*
X312654Y833025D1*
X309032Y836731D1*
X301789Y840353D1*
X294460D1*
X287217Y836731D1*
X283510Y833025D1*
X279888Y822075D1*
Y789309D1*
X356454D1*
X316360Y814831D2*
X356454Y840353D1*
X279889Y863883D2*
X356454Y914926D1*
X279889D2*
X356454Y863882D1*
X279973Y960356D2*
X283595Y949406D1*
X294545Y942078D1*
X312739Y938456D1*
X323688D1*
X341882Y942077D1*
X352832Y949406D1*
X356454Y960356D1*
Y967599D1*
X352832Y978549D1*
X341882Y985793D1*
X323688Y989499D1*
X312738D1*
X294545Y985793D1*
X283595Y978549D1*
X279973Y967599D1*
Y960356D1*
X294545Y985793D2*
X341882Y942077D1*
X279888Y1040769D2*
X356454Y1069913D1*
X279889Y1099057D1*
X298082Y1177252D2*
X290839Y1173630D1*
X283510Y1166302D1*
X279889Y1159058D1*
Y1144486D1*
X283510Y1137158D1*
X290839Y1129914D1*
X298082Y1126208D1*
X309032Y1122586D1*
X327310D1*
X338176Y1126208D1*
X345504Y1129914D1*
X352748Y1137158D1*
X356454Y1144486D1*
Y1159058D1*
X352748Y1166302D1*
X345504Y1173630D1*
X338176Y1177252D1*
X298082Y1255447D2*
X290839Y1251825D1*
X283510Y1244497D1*
X279889Y1237253D1*
Y1222681D1*
X283510Y1215353D1*
X290839Y1208109D1*
X298082Y1204403D1*
X309032Y1200781D1*
X327310D1*
X338176Y1204403D1*
X345504Y1208109D1*
X352748Y1215353D1*
X356454Y1222681D1*
Y1237253D1*
X352748Y1244497D1*
X345504Y1251825D1*
X338176Y1255447D1*
X345709Y1476435D2*
X338465Y1472813D1*
X331137Y1465485D1*
X327515Y1458241D1*
Y1443669D1*
X331137Y1436341D1*
X338465Y1429097D1*
X345709Y1425391D1*
X356659Y1421769D1*
X374937D1*
X385803Y1425391D1*
X393131Y1429097D1*
X400375Y1436341D1*
X404081Y1443669D1*
Y1458241D1*
X400375Y1465485D1*
X393131Y1472813D1*
X385803Y1476435D1*
X374937D1*
Y1458241D1*
X327515Y1551008D2*
X404081D1*
X327515Y1499964D1*
X404081D1*
X327515Y1574538D2*
X404081Y1574537D1*
Y1600059D1*
X400375Y1611009D1*
X393131Y1618337D1*
X385803Y1621959D1*
X374937Y1625581D1*
X356659D1*
X345709Y1621959D1*
X338465Y1618338D1*
X331137Y1611009D1*
X327515Y1600059D1*
Y1574538D1*
X489063Y107696D2*
Y184262D1*
X459920Y107696D1*
X430776Y184262D1*
Y107696D1*
X512593Y184262D2*
X516215Y180640D1*
X519921Y184262D1*
X516215Y187968D1*
X512593Y184262D1*
X516215Y158740D2*
Y107696D1*
X543450Y158740D2*
Y107696D1*
Y144168D2*
X554400Y155118D1*
X561728Y158740D1*
X572594D1*
X579922Y155118D1*
X583544Y144168D1*
Y107696D1*
X607074Y184262D2*
X610695Y180640D1*
X614402Y184262D1*
X610695Y187968D1*
X607074Y184262D1*
X610695Y158740D2*
Y107696D1*
X660354Y184177D2*
X700363D1*
X678548Y155034D1*
X689498D1*
X696741Y151412D1*
X700363Y147790D1*
X704070Y136840D1*
Y129596D1*
X700363Y118646D1*
X693120Y111318D1*
X682170Y107696D1*
X671220D1*
X660354Y111318D1*
X656732Y115024D1*
X653026Y122268D1*
X731305Y165984D2*
Y169605D1*
X734927Y176934D1*
X738549Y180555D1*
X745877Y184177D1*
X760449D1*
X767693Y180555D1*
X771315Y176934D1*
X775021Y169605D1*
Y162362D1*
X771315Y155034D1*
X764071Y144168D1*
X727599Y107696D1*
X778643D1*
X820366Y184177D2*
X809500Y180555D1*
X805794Y173312D1*
Y165984D1*
X809500Y158740D1*
X816744Y155034D1*
X831316Y151412D1*
X842266Y147790D1*
X849510Y140462D1*
X853132Y133218D1*
Y122268D1*
X849510Y115024D1*
X845888Y111318D1*
X834938Y107696D1*
X820366D1*
X809500Y111318D1*
X805794Y115024D1*
X802172Y122268D1*
Y133218D1*
X805794Y140462D1*
X813122Y147790D1*
X823988Y151412D1*
X838560Y155034D1*
X845888Y158740D1*
X849510Y165984D1*
Y173312D1*
X845888Y180555D1*
X834938Y184177D1*
X820366D1*
X876661Y144168D2*
X909511D1*
X920377Y147790D1*
X924083Y151496D1*
X927705Y158740D1*
Y169690D1*
X924083Y176934D1*
X920377Y180640D1*
X909511Y184262D1*
X876661D1*
Y107696D1*
X951234Y184262D2*
Y107696D1*
X984084D1*
X995034Y111402D1*
X998656Y115024D1*
X1002278Y122268D1*
Y133218D1*
X998656Y140546D1*
X995034Y144168D1*
X984084Y147790D1*
X995034Y151496D1*
X998656Y155118D1*
X1002278Y162362D1*
Y169690D1*
X998656Y176934D1*
X995034Y180640D1*
X984084Y184262D1*
X951234D1*
Y147790D2*
X984084D1*
M02*
