M48
;Layer_Color=9474304
;FILE_FORMAT=2:5
INCH,TZ
;TYPE=PLATED
T1F00S00C0.01181
T2F00S00C0.03543
%
T01
X25000Y45000
X45000
Y25000
X65000
Y35000
X60000Y20000
Y55000
X84910Y35090
X90000Y40000
X100000
X95000Y35000
X90000Y30000
X95000Y45000
X110000Y55000
X150000
X130000Y35000
Y25000
X150000Y15000
T02
X5000Y5000
Y15000
Y25000
Y35000
Y45000
Y55000
X45000Y5000
X55000
X65000
X75000
X85000
X95000
X105000
X115000
X125000
X135000
X145000
X155000
Y65000
X145000
X135000
X125000
X115000
X105000
X95000
X85000
X75000
X65000
X55000
X45000
X5000
M30
