G04*
G04 #@! TF.GenerationSoftware,Altium Limited,Altium Designer,23.5.1 (21)*
G04*
G04 Layer_Color=16711935*
%FSLAX25Y25*%
%MOIN*%
G70*
G04*
G04 #@! TF.SameCoordinates,D9CCEF5A-5521-415F-BE8B-602E9C6E1BA1*
G04*
G04*
G04 #@! TF.FilePolarity,Negative*
G04*
G01*
G75*
%ADD30R,0.07099X0.07099*%
%ADD31C,0.07099*%
%ADD32R,0.07099X0.07099*%
%ADD33C,0.03162*%
D30*
X155000Y5000D02*
D03*
X45000Y65000D02*
D03*
D31*
X145000Y5000D02*
D03*
X135000D02*
D03*
X125000D02*
D03*
X115000D02*
D03*
X105000D02*
D03*
X95000D02*
D03*
X85000D02*
D03*
X75000D02*
D03*
X65000D02*
D03*
X55000D02*
D03*
X45000D02*
D03*
X55000Y65000D02*
D03*
X65000D02*
D03*
X75000D02*
D03*
X85000D02*
D03*
X95000D02*
D03*
X105000D02*
D03*
X115000D02*
D03*
X125000D02*
D03*
X135000D02*
D03*
X145000D02*
D03*
X155000D02*
D03*
X5000Y55000D02*
D03*
Y45000D02*
D03*
Y35000D02*
D03*
Y25000D02*
D03*
Y15000D02*
D03*
Y65000D02*
D03*
D32*
Y5000D02*
D03*
D33*
X65000Y35000D02*
D03*
Y25000D02*
D03*
X45000Y45000D02*
D03*
X25000D02*
D03*
X45000Y25000D02*
D03*
X60000Y20000D02*
D03*
Y55000D02*
D03*
X84910Y35090D02*
D03*
X130000Y25000D02*
D03*
X150000Y55000D02*
D03*
X110000D02*
D03*
X100000Y40000D02*
D03*
X95000Y35000D02*
D03*
X90000Y30000D02*
D03*
X130000Y35000D02*
D03*
X150000Y15000D02*
D03*
X90000Y40000D02*
D03*
X95000Y45000D02*
D03*
M02*
