G04*
G04 #@! TF.GenerationSoftware,Altium Limited,Altium Designer,23.5.1 (21)*
G04*
G04 Layer_Color=8388736*
%FSLAX25Y25*%
%MOIN*%
G70*
G04*
G04 #@! TF.SameCoordinates,D9CCEF5A-5521-415F-BE8B-602E9C6E1BA1*
G04*
G04*
G04 #@! TF.FilePolarity,Negative*
G04*
G01*
G75*
%ADD22R,0.07887X0.04737*%
%ADD23R,0.05131X0.04737*%
%ADD24R,0.04540X0.02375*%
G04:AMPARAMS|DCode=25|XSize=33.47mil|YSize=66.93mil|CornerRadius=0mil|HoleSize=0mil|Usage=FLASHONLY|Rotation=225.000|XOffset=0mil|YOffset=0mil|HoleType=Round|Shape=Rectangle|*
%AMROTATEDRECTD25*
4,1,4,-0.01183,0.03550,0.03550,-0.01183,0.01183,-0.03550,-0.03550,0.01183,-0.01183,0.03550,0.0*
%
%ADD25ROTATEDRECTD25*%

G04:AMPARAMS|DCode=26|XSize=33.47mil|YSize=66.93mil|CornerRadius=0mil|HoleSize=0mil|Usage=FLASHONLY|Rotation=135.000|XOffset=0mil|YOffset=0mil|HoleType=Round|Shape=Rectangle|*
%AMROTATEDRECTD26*
4,1,4,0.03550,0.01183,-0.01183,-0.03550,-0.03550,-0.01183,0.01183,0.03550,0.03550,0.01183,0.0*
%
%ADD26ROTATEDRECTD26*%

%ADD27R,0.04540X0.04343*%
%ADD28R,0.05524X0.04147*%
%ADD29R,0.03950X0.07493*%
%ADD30R,0.07099X0.07099*%
%ADD31C,0.07099*%
%ADD32R,0.07099X0.07099*%
%ADD33C,0.03162*%
D22*
X60000Y49921D02*
D03*
Y40079D02*
D03*
D23*
X44646Y50000D02*
D03*
X50354D02*
D03*
X44646Y40000D02*
D03*
X50354D02*
D03*
X75354Y55000D02*
D03*
X69646D02*
D03*
X72854Y20000D02*
D03*
X67146D02*
D03*
X32854Y15000D02*
D03*
X27146D02*
D03*
D24*
X34232Y25000D02*
D03*
X25768D02*
D03*
D25*
X98897Y15513D02*
D03*
X101125Y17740D02*
D03*
X103352Y19967D02*
D03*
X105579Y22194D02*
D03*
X107806Y24421D02*
D03*
X110033Y26648D02*
D03*
X112260Y28875D02*
D03*
X114487Y31103D02*
D03*
X91103Y54487D02*
D03*
X88876Y52260D02*
D03*
X86648Y50033D02*
D03*
X84421Y47806D02*
D03*
X82194Y45579D02*
D03*
X79967Y43352D02*
D03*
X77740Y41125D02*
D03*
X75513Y38897D02*
D03*
D26*
X114487D02*
D03*
X112260Y41125D02*
D03*
X110033Y43352D02*
D03*
X107806Y45579D02*
D03*
X105579Y47806D02*
D03*
X103352Y50033D02*
D03*
X101125Y52260D02*
D03*
X98897Y54487D02*
D03*
X75513Y31103D02*
D03*
X77740Y28875D02*
D03*
X79967Y26648D02*
D03*
X82194Y24421D02*
D03*
X84421Y22194D02*
D03*
X86648Y19967D02*
D03*
X88876Y17740D02*
D03*
X91103Y15513D02*
D03*
D27*
X141949Y30000D02*
D03*
X148051D02*
D03*
X33051Y35000D02*
D03*
X26949D02*
D03*
D28*
X148051Y20000D02*
D03*
X141949D02*
D03*
D29*
X151693Y40000D02*
D03*
X138307D02*
D03*
D30*
X155000Y5000D02*
D03*
X45000Y65000D02*
D03*
D31*
X145000Y5000D02*
D03*
X135000D02*
D03*
X125000D02*
D03*
X115000D02*
D03*
X105000D02*
D03*
X95000D02*
D03*
X85000D02*
D03*
X75000D02*
D03*
X65000D02*
D03*
X55000D02*
D03*
X45000D02*
D03*
X55000Y65000D02*
D03*
X65000D02*
D03*
X75000D02*
D03*
X85000D02*
D03*
X95000D02*
D03*
X105000D02*
D03*
X115000D02*
D03*
X125000D02*
D03*
X135000D02*
D03*
X145000D02*
D03*
X155000D02*
D03*
X5000Y55000D02*
D03*
Y45000D02*
D03*
Y35000D02*
D03*
Y25000D02*
D03*
Y15000D02*
D03*
Y65000D02*
D03*
D32*
Y5000D02*
D03*
D33*
X65000Y35000D02*
D03*
Y25000D02*
D03*
X45000Y45000D02*
D03*
X25000D02*
D03*
X45000Y25000D02*
D03*
X60000Y20000D02*
D03*
Y55000D02*
D03*
X84910Y35090D02*
D03*
X130000Y25000D02*
D03*
X150000Y55000D02*
D03*
X110000D02*
D03*
X100000Y40000D02*
D03*
X95000Y35000D02*
D03*
X90000Y30000D02*
D03*
X130000Y35000D02*
D03*
X150000Y15000D02*
D03*
X90000Y40000D02*
D03*
X95000Y45000D02*
D03*
M02*
